<svg width="181" height="47" viewBox="0 0 181 47" fill="none" xmlns="http://www.w3.org/2000/svg">
<path d="M40.1705 19.3482L40.1409 25.036L40.2001 30.9317H32.5753L32.5929 30.1173L32.6105 27.0955L32.6642 21.6592L32.5929 15.6156L32.5753 14.7568H40.1844V17.8082C41.3192 16.6037 42.1088 15.843 42.5532 15.5268C43.5797 14.8058 44.5461 14.4453 45.4542 14.4453C46.0068 14.4453 46.4632 14.5636 46.8233 14.8012C47.1834 15.0378 47.3639 15.3392 47.3639 15.7052C47.3639 15.9918 47.2556 16.2284 47.038 16.4161C46.8205 16.6037 46.5493 16.698 46.2235 16.698C46.0161 16.698 45.7847 16.6389 45.5273 16.5206C45.0932 16.3135 44.7331 16.209 44.4471 16.209C43.7362 16.209 43.0502 16.4512 42.3893 16.9347C41.7284 17.4191 40.9878 18.2233 40.1686 19.3492L40.1705 19.3482Z" fill="#FF00A2"/>
<path d="M58.4303 21.0665V19.2594C58.4201 18.005 58.4007 17.235 58.371 16.9484C58.3414 16.6619 58.2525 16.4058 58.1035 16.1784C57.7471 15.6256 56.9149 15.3492 55.6079 15.3492C53.5871 15.3492 52.0274 15.9815 50.9277 17.2451C50.4824 17.7591 50.1057 18.0152 49.7984 18.0152C49.5706 18.0152 49.3716 17.9366 49.2041 17.7785C49.0356 17.6204 48.9514 17.4374 48.9514 17.2304C48.9514 16.6082 49.6882 15.9667 51.1619 15.3049C52.5661 14.6726 54.3804 14.3564 56.6058 14.3564C60.264 14.3564 62.8457 14.9092 64.349 16.0157C65.0016 16.5001 65.4265 17.0427 65.6246 17.6454C65.8227 18.2481 65.9208 19.3093 65.9208 20.8299V26.7108C65.881 27.797 65.9134 28.6141 66.0171 29.1623C66.1208 29.7105 66.3559 30.3002 66.7215 30.9325H58.4145V29.3768C57.5046 29.9989 56.6021 30.4685 55.7079 30.7837C54.8127 31.0998 53.9306 31.2579 53.0604 31.2579C51.5868 31.2579 50.2769 30.828 49.13 29.9693C47.6369 28.8434 46.8899 27.3819 46.8899 25.5849C46.8899 23.995 47.4934 22.711 48.7014 21.734C50.1075 20.5785 51.8497 20.0007 53.9296 20.0007C54.7813 20.0007 55.5338 20.0775 56.1874 20.23C56.8409 20.3834 57.5888 20.6617 58.4303 21.0665ZM58.4303 22.1333C57.1843 21.5112 56.2198 21.1997 55.5375 21.1997C54.9636 21.1997 54.5878 21.4271 54.4101 21.8809C54.311 22.1277 54.262 22.8441 54.262 24.0292V27.5696C54.2712 28.3498 54.2962 28.824 54.336 28.9913C54.4351 29.4452 54.7711 29.6726 55.345 29.6726C55.7995 29.6726 56.3068 29.5367 56.865 29.2649C57.4231 28.9931 57.935 28.6354 58.4007 28.1908L58.4303 22.1324V22.1333Z" fill="#FF00A2"/>
<path d="M80.8141 15.3941C81.6648 15.8091 82.3766 16.3573 82.9496 17.0386C83.7114 17.9565 84.0919 19.0186 84.0919 20.2231C84.0919 21.0818 83.8744 21.8971 83.4393 22.6671C83.0042 23.4372 82.3961 24.0842 81.6148 24.6074C80.1707 25.5854 78.4305 26.0735 76.3931 26.0735C75.4535 26.0735 74.588 25.9894 73.7975 25.8221C73.006 25.6538 72.2849 25.4024 71.6314 25.0668C71.1667 25.383 70.9344 25.7037 70.9344 26.03C70.9344 26.4155 71.1963 26.6429 71.7203 26.7113C72.857 26.8592 73.6383 26.9036 74.0641 26.8444L74.1529 26.8296H78.5878L78.81 26.8148C80.2939 26.7261 81.3612 26.9729 82.0138 27.5553C82.5182 28.0193 82.77 28.5629 82.77 29.185C82.77 29.7082 82.5923 30.1824 82.2359 30.6067C81.6426 31.3074 80.8418 31.6586 79.8329 31.6586C79.645 31.6586 79.408 31.6485 79.121 31.629C79.2793 31.3822 79.358 31.19 79.358 31.0513C79.358 30.7453 79.0812 30.5919 78.5277 30.5919C78.0528 30.5919 77.0595 30.6954 75.5461 30.9034C74.488 31.0513 73.6123 31.1252 72.9209 31.1252C71.8332 31.1252 70.889 30.8932 70.0874 30.4292C69.6227 30.163 69.257 29.7978 68.9895 29.3329C68.7229 28.8688 68.5887 28.365 68.5887 27.8224C68.5887 27.2105 68.7498 26.6503 69.071 26.141C69.3922 25.6326 69.9291 25.0964 70.6807 24.5335C69.9781 24.0888 69.4348 23.5093 69.0488 22.7929C68.6628 22.0774 68.4702 21.2991 68.4702 20.4597C68.4702 18.4649 69.4736 16.875 71.4814 15.6899C72.9847 14.8016 74.8092 14.3569 76.9549 14.3569C77.4298 14.3569 77.9241 14.3819 78.4388 14.4309C79.1405 14.49 79.6496 14.5196 79.9662 14.5196C80.7474 14.5196 81.3158 14.1739 81.6722 13.4825C81.8795 13.0674 82.1026 12.8604 82.3396 12.8604C82.5275 12.8604 82.6904 12.9223 82.8293 13.0452C82.9672 13.1691 83.0366 13.3188 83.0366 13.4973C83.0366 13.8531 82.8385 14.2007 82.4433 14.5418C82.048 14.882 81.5037 15.1667 80.8113 15.3932L80.8141 15.3941ZM74.9842 17.0229V23.2883C74.9842 24.0389 75.0434 24.503 75.1619 24.6804C75.36 24.967 75.7701 25.1103 76.3931 25.1103C76.967 25.1103 77.3502 24.9744 77.5427 24.7026C77.7353 24.4309 77.8316 23.8956 77.8316 23.0951V17.0515C77.8316 16.3804 77.7353 15.9312 77.5427 15.7038C77.3502 15.4764 76.9716 15.3627 76.4079 15.3627C75.8441 15.3627 75.4655 15.4764 75.273 15.7038C75.0805 15.9312 74.9842 16.3702 74.9842 17.0219V17.0229Z" fill="#FF00A2"/>
<path d="M86.1394 27.496C86.3171 27.496 86.5254 27.6291 86.7624 27.8962C87.5038 28.706 88.411 29.3549 89.4839 29.8439C90.5567 30.3329 91.6175 30.5769 92.6654 30.5769C93.8225 30.5769 94.401 30.2266 94.401 29.525C94.401 29.0803 94.1983 28.5793 93.7938 28.021C93.3884 27.4627 92.4192 26.359 90.8863 24.7108C88.9572 22.6272 87.6714 21.0826 87.029 20.075C86.1783 18.742 85.7534 17.4729 85.7534 16.2684C85.7534 14.451 86.5643 12.9646 88.1861 11.8101C89.7782 10.6749 91.7407 10.1064 94.0752 10.1064C95.7072 10.1064 97.2049 10.4374 98.5694 11.0992C99.0831 11.3562 99.5265 11.652 99.8968 11.9876C100.268 12.3231 100.453 12.6051 100.453 12.8315C100.453 12.9406 100.401 13.0414 100.298 13.1347C100.194 13.229 100.087 13.2752 99.9792 13.2752C99.8107 13.2752 99.5635 13.1218 99.2377 12.8158C98.7036 12.312 98.001 11.8951 97.1318 11.5642C96.2617 11.2333 95.4258 11.0678 94.6251 11.0678C94.1307 11.0678 93.7281 11.1741 93.4161 11.3867C93.1042 11.5993 92.9487 11.8729 92.9487 12.2094C92.9487 12.6143 93.1412 13.1088 93.5263 13.6912C93.9114 14.2745 94.564 15.0491 95.4841 16.017C98.3926 19.1072 100.173 21.1907 100.825 22.2667C101.507 23.4028 101.849 24.4982 101.849 25.5547C101.849 26.4532 101.606 27.3028 101.122 28.1023C100.637 28.9019 99.9653 29.5592 99.1053 30.0722C97.4641 31.0502 95.4609 31.5383 93.0977 31.5383C90.9224 31.5383 89.009 30.9753 87.3576 29.8494C86.2005 29.0591 85.6219 28.4425 85.6219 27.9979C85.6219 27.8694 85.6738 27.7539 85.7775 27.6494C85.8811 27.5459 86.0024 27.4941 86.1413 27.4941L86.1394 27.496Z" fill="#FF00A2"/>
<path d="M104.473 14.7567H112.053L112.008 16.697C113.007 15.8382 113.922 15.2328 114.753 14.8824C115.583 14.5321 116.498 14.3564 117.497 14.3564C119.543 14.3564 121.205 15.1172 122.48 16.6378C123.627 18.0004 124.201 19.7336 124.201 21.8375C124.201 24.0791 123.543 25.9205 122.229 27.3625C121.012 28.6955 119.494 29.362 117.674 29.362C116.715 29.362 115.761 29.1623 114.811 28.762C113.862 28.3618 112.917 27.7619 111.978 26.9623L111.993 27.5104L112.007 29.4507L112.037 31.0656L112.052 31.6138H104.472L104.487 27.3921L104.517 23.4672L104.472 15.2762V14.7576L104.473 14.7567ZM112.008 18.0299V25.7624C112.73 26.4344 113.378 26.9401 113.951 27.2803C114.524 27.6214 115.024 27.7914 115.449 27.7914C115.844 27.7914 116.077 27.5992 116.146 27.2137C116.166 27.0852 116.18 26.4187 116.191 25.2143V17.9708C116.191 17.112 116.176 16.5981 116.146 16.4308C116.077 16.0157 115.869 15.8087 115.523 15.8087C115.078 15.8087 114.539 16.0083 113.906 16.4086C113.273 16.8088 112.64 17.3496 112.007 18.0309L112.008 18.0299Z" fill="#FF00A2"/>
<path d="M137.165 21.0665V19.2594C137.155 18.005 137.136 17.235 137.106 16.9484C137.077 16.6619 136.988 16.4058 136.839 16.1784C136.482 15.6256 135.65 15.3492 134.343 15.3492C132.322 15.3492 130.762 15.9815 129.663 17.2451C129.218 17.7591 128.841 18.0152 128.533 18.0152C128.306 18.0152 128.107 17.9366 127.939 17.7785C127.771 17.6204 127.686 17.4374 127.686 17.2304C127.686 16.6082 128.423 15.9667 129.897 15.3049C131.301 14.6726 133.116 14.3564 135.341 14.3564C138.999 14.3564 141.581 14.9092 143.084 16.0157C143.737 16.5001 144.162 17.0427 144.36 17.6454C144.558 18.2481 144.656 19.3093 144.656 20.8299V26.7108C144.616 27.797 144.649 28.6141 144.752 29.1623C144.856 29.7105 145.091 30.3002 145.457 30.9325H137.15V29.3768C136.24 29.9989 135.337 30.4685 134.443 30.7837C133.548 31.0998 132.666 31.2579 131.796 31.2579C130.322 31.2579 129.012 30.828 127.865 29.9693C126.372 28.8434 125.625 27.3819 125.625 25.5849C125.625 23.995 126.229 22.711 127.437 21.734C128.843 20.5785 130.585 20.0007 132.665 20.0007C133.516 20.0007 134.269 20.0775 134.922 20.23C135.576 20.3834 136.324 20.6617 137.165 21.0665ZM137.165 22.1333C135.919 21.5112 134.955 21.1997 134.273 21.1997C133.699 21.1997 133.323 21.4271 133.145 21.8809C133.046 22.1277 132.997 22.8441 132.997 24.0292V27.5696C133.006 28.3498 133.031 28.824 133.071 28.9913C133.17 29.4452 133.506 29.6726 134.08 29.6726C134.535 29.6726 135.042 29.5367 135.6 29.2649C136.158 28.9931 136.67 28.6354 137.136 28.1908L137.165 22.1324V22.1333Z" fill="#FF00A2"/>
<path d="M154.996 17.9708V27.8654L154.981 28.8139C154.981 29.4267 155.058 29.8335 155.21 30.0359C155.364 30.2383 155.672 30.34 156.138 30.34C157.304 30.34 158.452 29.9823 159.58 29.2659C160.707 28.5504 161.626 27.59 162.339 26.3846C162.557 26.0194 162.77 25.8364 162.977 25.8364C163.125 25.8364 163.261 25.903 163.385 26.0361C163.509 26.1692 163.57 26.3097 163.57 26.4585C163.57 26.8144 163.283 27.3154 162.71 27.9625C162.136 28.6096 161.469 29.1892 160.708 29.7031C159.156 30.7403 157.494 31.2589 155.724 31.2589C153.302 31.2589 151.299 30.5083 149.717 29.0071C147.917 27.3182 147.017 25.2494 147.017 22.8007C147.017 20.3521 147.967 18.1696 149.866 16.4909C151.458 15.0692 153.42 14.3574 155.755 14.3574C157.614 14.3574 159.241 14.7974 160.635 15.6756C161.228 16.0509 161.712 16.453 162.088 16.8828C162.464 17.3127 162.652 17.675 162.652 17.9718C162.652 18.1197 162.597 18.2454 162.489 18.3498C162.38 18.4534 162.247 18.5051 162.088 18.5051C161.881 18.5051 161.619 18.2685 161.302 17.7943C160.848 17.1324 160.13 16.5575 159.151 16.0685C158.172 15.5795 157.247 15.3354 156.377 15.3354C155.794 15.3354 155.418 15.4981 155.249 15.8244C155.081 16.1507 154.998 16.8662 154.998 17.9727L154.996 17.9708Z" fill="#FF00A2"/>
<path d="M171.06 23.3185V27.9108C171.06 28.8001 171.114 29.3621 171.223 29.5997C171.43 30.0536 171.92 30.281 172.691 30.281C173.838 30.281 174.973 29.9676 176.096 29.3399C177.217 28.7132 178.189 27.8461 179.01 26.7406C179.277 26.3754 179.471 26.1434 179.589 26.0445C179.708 25.9456 179.836 25.8966 179.975 25.8966C180.144 25.8966 180.281 25.9585 180.391 26.0815C180.499 26.2054 180.554 26.3607 180.554 26.5483C180.554 26.9633 180.222 27.5208 179.559 28.2224C178.689 29.1209 177.609 29.852 176.319 30.415C175.028 30.9779 173.769 31.259 172.544 31.259C170.438 31.259 168.578 30.5527 166.967 29.1412C166.027 28.312 165.305 27.2897 164.8 26.075C164.355 25.0083 164.133 23.9415 164.133 22.8757C164.133 21.8099 164.331 20.819 164.726 19.7874C165.122 18.7557 165.666 17.8646 166.358 17.114C167.159 16.2349 168.109 15.5537 169.207 15.0702C170.284 14.596 171.412 14.3594 172.589 14.3594C174.418 14.3594 176.075 14.8974 177.558 15.9743C179.872 17.653 181.019 20.0869 181 23.2769H177.543L173.094 23.2917L171.062 23.3213L171.06 23.3185ZM174.857 22.3405V18.0246C174.837 17.0983 174.817 16.5446 174.798 16.3616C174.778 16.1795 174.709 16.0094 174.59 15.8513C174.314 15.4668 173.75 15.2745 172.899 15.2745C172.048 15.2745 171.485 15.4964 171.267 15.9401C171.128 16.2063 171.06 16.9005 171.06 18.0246V22.3405L172.87 22.3997L174.857 22.3405Z" fill="#FF00A2"/>
<path d="M87.2123 38.5675H85.6201V37.1855H90.3262V38.5675H88.7341V46.862H87.2114V38.5675H87.2123Z" fill="white"/>
<path d="M91.6138 37.1855H93.1365V41.1253H94.7703V37.1855H96.2931V46.862H94.7703V42.5072H93.1365V46.862H91.6138V37.1855Z" fill="white"/>
<path d="M97.9816 37.1855H102.134V38.5674H99.5043V41.1252H101.594V42.5072H99.5043V45.4791H102.134V46.861H97.9816V37.1846V37.1855Z" fill="white"/>
<path d="M106.329 37.1855H108.572C110.095 37.1855 110.842 38.0286 110.842 39.5769V40.5309C110.842 42.0792 110.095 42.9223 108.572 42.9223H107.852V46.862H106.329V37.1855ZM108.572 41.5403C109.056 41.5403 109.32 41.3194 109.32 40.628V39.4808C109.32 38.7894 109.057 38.5684 108.572 38.5684H107.852V41.5403H108.572Z" fill="white"/>
<path d="M112.226 37.1855H113.749V45.48H116.254V46.862H112.226V37.1855Z" fill="white"/>
<path d="M118.774 37.1855H120.836L122.415 46.862H120.892L120.615 44.9402V44.9679H118.885L118.608 46.862H117.197L118.775 37.1855H118.774ZM120.436 43.6553L119.757 38.8725H119.729L119.065 43.6553H120.435H120.436Z" fill="white"/>
<path d="M123.577 44.6222V39.4244C123.577 37.9315 124.352 37.0469 125.82 37.0469C127.288 37.0469 128.063 37.9315 128.063 39.4244V40.4477H126.624V39.3283C126.624 38.6923 126.319 38.4298 125.863 38.4298C125.407 38.4298 125.102 38.6923 125.102 39.3283V44.7331C125.102 45.3691 125.407 45.6178 125.863 45.6178C126.319 45.6178 126.624 45.3691 126.624 44.7331V43.2541H128.063V44.6231C128.063 46.116 127.288 47.0006 125.82 47.0006C124.352 47.0006 123.577 46.116 123.577 44.6231V44.6222Z" fill="white"/>
<path d="M129.53 37.1855H133.683V38.5674H131.053V41.1252H133.143V42.5072H131.053V45.4791H133.683V46.861H129.53V37.1846V37.1855Z" fill="white"/>
<path d="M137.877 37.1855H141.906V38.5674H139.4V41.263H141.366V42.6449H139.4V46.861H137.877V37.1846V37.1855Z" fill="white"/>
<path d="M143.082 44.5677V39.4808C143.082 37.9325 143.899 37.0479 145.394 37.0479C146.889 37.0479 147.705 37.9325 147.705 39.4808V44.5677C147.705 46.1161 146.889 47.0007 145.394 47.0007C143.899 47.0007 143.082 46.1161 143.082 44.5677ZM146.183 44.6639V39.3828C146.183 38.6914 145.879 38.4289 145.395 38.4289C144.91 38.4289 144.605 38.6914 144.605 39.3828V44.6639C144.605 45.3553 144.91 45.6178 145.395 45.6178C145.88 45.6178 146.183 45.3553 146.183 44.6639Z" fill="white"/>
<path d="M149.284 37.1855H151.541C153.119 37.1855 153.797 37.9186 153.797 39.4115V40.0058C153.797 41.0014 153.478 41.6374 152.8 41.9138V41.9415C153.561 42.1763 153.811 42.8955 153.811 43.9872V45.6871C153.811 46.1567 153.825 46.5024 153.976 46.862H152.426C152.343 46.6133 152.287 46.4608 152.287 45.6732V43.904C152.287 43.0055 152.024 42.7152 151.332 42.7152H150.806V46.862H149.283V37.1855H149.284ZM151.361 41.3323C151.928 41.3323 152.274 41.0837 152.274 40.309V39.5631C152.274 38.8716 152.039 38.5675 151.499 38.5675H150.807V41.3323H151.361Z" fill="white"/>
<path d="M158.186 37.1855H160.511C162.034 37.1855 162.781 38.0286 162.781 39.5769V44.4706C162.781 46.019 162.033 46.862 160.511 46.862H158.186V37.1855ZM160.483 45.48C160.967 45.48 161.258 45.2314 161.258 44.5399V39.5085C161.258 38.8171 160.967 38.5684 160.483 38.5684H159.708V45.48H160.483Z" fill="white"/>
<path d="M164.359 37.1855H166.616C168.194 37.1855 168.871 37.9186 168.871 39.4115V40.0058C168.871 41.0014 168.553 41.6374 167.875 41.9138V41.9415C168.635 42.1763 168.885 42.8955 168.885 43.9872V45.6871C168.885 46.1567 168.899 46.5024 169.051 46.862H167.501C167.417 46.6133 167.362 46.4608 167.362 45.6732V43.904C167.362 43.0055 167.099 42.7152 166.406 42.7152H165.881V46.862H164.358V37.1855H164.359ZM166.436 41.3323C167.003 41.3323 167.35 41.0837 167.35 40.309V39.5631C167.35 38.8716 167.115 38.5675 166.575 38.5675H165.882V41.3323H166.436Z" fill="white"/>
<path d="M171.668 37.1855H173.73L175.309 46.862H173.786L173.509 44.9402V44.9679H171.779L171.502 46.862H170.091L171.669 37.1855H171.668ZM173.33 43.6553L172.651 38.8725H172.623L171.959 43.6553H173.329H173.33Z" fill="white"/>
<path d="M176.458 44.5677V39.4808C176.458 37.9325 177.233 37.0479 178.728 37.0479C180.223 37.0479 180.998 37.9325 180.998 39.4808V40.31H179.558V39.3838C179.558 38.6923 179.254 38.4298 178.77 38.4298C178.286 38.4298 177.98 38.6923 177.98 39.3838V44.6777C177.98 45.3692 178.285 45.6178 178.77 45.6178C179.255 45.6178 179.558 45.3692 179.558 44.6777V42.7837H178.798V41.4017H180.999V44.5677C180.999 46.1161 180.224 47.0007 178.729 47.0007C177.234 47.0007 176.459 46.1161 176.459 44.5677H176.458Z" fill="white"/>
<path d="M28.3191 15.0667C26.7565 12.8445 24.7043 11.4921 22.1633 11.0077C21.1349 10.8099 19.602 10.7119 17.5646 10.7119H14.2424L13.4472 10.7757C13.4333 10.7766 13.4194 10.7785 13.4055 10.7803C11.3265 10.9939 9.7806 12.8084 9.79911 14.8957L9.8528 21.1547L9.80837 30.931H17.3434C19.0244 30.931 20.112 30.9162 20.6064 30.8866C21.1007 30.857 21.6644 30.7784 22.2976 30.6499C24.7497 30.1369 26.738 28.8178 28.2608 26.6945C29.5262 24.9373 30.1593 22.9868 30.1593 20.8432C30.1593 18.6995 29.5456 16.8138 28.32 15.0667H28.3191ZM27.859 25.5242C26.85 27.2131 25.4606 28.437 23.6907 29.1977C22.9391 29.524 22.2744 29.7339 21.6959 29.8272C21.1173 29.9215 20.1657 29.9733 18.8402 29.9825L18.7513 23.5682L18.8402 11.6585L19.4178 11.6437C23.0418 11.6437 25.7772 13.0118 27.6239 15.747C28.6607 17.288 29.179 18.9759 29.179 20.8127C29.179 22.5015 28.7384 24.0711 27.859 25.5233V25.5242Z" fill="#FF00A2"/>
<path d="M16.1224 0.626444C15.7327 0.00248503 14.9107 -0.187014 14.2859 0.202152C13.661 0.591317 13.4713 1.41217 13.861 2.03613C13.9397 2.16277 14.0378 2.27 14.147 2.35966L11.9106 5.80946L8.0968 3.78414C8.26712 3.39497 8.24861 2.93278 8.007 2.54546C7.6173 1.92151 6.7953 1.73201 6.17047 2.12117C5.54564 2.51034 5.35587 3.33119 5.74558 3.95515C5.98811 4.34339 6.39911 4.56339 6.82492 4.58003L6.98784 9.10951L2.65105 9.63734C2.62421 9.46448 2.56312 9.29531 2.46499 9.13724C2.07528 8.51329 1.25329 8.32379 0.628457 8.71295C0.00270081 9.10212 -0.187062 9.92297 0.201721 10.5469C0.59143 11.1709 1.41343 11.3604 2.03826 10.9712C2.22524 10.8547 2.37243 10.6995 2.47703 10.522L6.47501 12.9855C8.37542 9.92667 11.6301 7.75437 15.4865 7.38369C15.5253 7.37999 15.5642 7.37907 15.6031 7.37537L14.931 2.66009C15.1912 2.67211 15.4578 2.60832 15.6957 2.46042C16.3205 2.07126 16.5102 1.2504 16.1205 0.626444H16.1224Z" fill="#FFDF00"/>
</svg>
